<svg xmlns="http://www.w3.org/2000/svg" width="1200" height="340" viewBox="0 0 1200 340" role="img" aria-labelledby="title description">
  <title id="title">Noritaka — Build. Test. Improve.</title>
  <desc id="description">A midnight blue profile banner with mint accents, code brackets, a check mark, and glowing dots orbiting the illustration.</desc>
  <style>
    .orbit { transform-origin: 0px 0px; }
    .orbit-inner { animation: orbit 12s linear infinite; }
    .orbit-outer { animation: orbit 24s linear infinite reverse; }
    @keyframes orbit { from { transform: rotate(0deg); } to { transform: rotate(360deg); } }
    @media (prefers-reduced-motion: reduce) { .orbit { animation: none; } }
  </style>
  <rect x="1" y="1" width="1198" height="338" rx="24" fill="#101c2b" stroke="#26384b" stroke-width="2"/>
  <path d="M64 58h36" stroke="#89ddc7" stroke-width="4" stroke-linecap="round"/>
  <text x="115" y="64" fill="#a8bbcc" font-family="Arial, Helvetica, sans-serif" font-size="16" font-weight="700" letter-spacing="3">SOFTWARE ENGINEER / JAPAN</text>
  <text x="60" y="163" fill="#f3f7fa" font-family="Arial, Helvetica, sans-serif" font-size="90" font-weight="700" letter-spacing="-4">Noritaka<tspan fill="#89ddc7">.</tspan></text>
  <text x="64" y="221" fill="#d0dce7" font-family="Arial, Helvetica, sans-serif" font-size="38" letter-spacing="-1">Build. Test. Improve.</text>
  <g font-family="Arial, Helvetica, sans-serif" font-size="14" font-weight="700" letter-spacing="1.5" text-anchor="middle">
    <rect x="64" y="265" width="176" height="32" rx="16" fill="#1a2c3c"/>
    <text x="152" y="286" fill="#89ddc7">DEVELOPMENT</text>
    <rect x="252" y="265" width="176" height="32" rx="16" fill="#1a2c3c"/>
    <text x="340" y="286" fill="#a8c7f0">AUTOMATION</text>
    <rect x="440" y="265" width="176" height="32" rx="16" fill="#1a2c3c"/>
    <text x="528" y="286" fill="#efb99b">OPEN SOURCE</text>
  </g>
  <path d="M787 64v212" stroke="#26384b" stroke-width="2"/>
  <circle cx="977" cy="170" r="115" fill="none" stroke="#26384b" stroke-width="2"/>
  <g transform="translate(977 170)">
    <g class="orbit orbit-inner">
      <path d="M94.2-65.96A115 115 0 0 1 115 0" fill="none" stroke="#89ddc7" stroke-width="3" stroke-linecap="round" opacity="0.75"/>
      <circle cx="115" cy="0" r="12" fill="#89ddc7" opacity="0.12"/>
      <circle cx="115" cy="0" r="5" fill="#89ddc7"/>
    </g>
    <g class="orbit orbit-outer">
      <circle cx="0" cy="0" r="145" fill="none" stroke="#1c2c3c" stroke-width="2" stroke-dasharray="4 12"/>
      <path d="M131.41 61.28A145 145 0 0 0 145 0" fill="none" stroke="#a8c7f0" stroke-width="2" stroke-linecap="round" opacity="0.65"/>
      <circle cx="145" cy="0" r="10" fill="#a8c7f0" opacity="0.1"/>
      <circle cx="145" cy="0" r="4" fill="#a8c7f0"/>
      <circle cx="-145" cy="0" r="11" fill="#efb99b" opacity="0.1"/>
      <circle cx="-145" cy="0" r="5" fill="#efb99b"/>
    </g>
  </g>
  <rect x="903" y="96" width="148" height="148" rx="30" transform="rotate(-12 977 170)" fill="#162737" stroke="#89ddc7" stroke-width="2"/>
  <g fill="none" stroke="#89ddc7" stroke-width="6" stroke-linecap="round" stroke-linejoin="round">
    <path d="m949 144-27 26 27 26m56-52 27 26-27 26"/>
    <path d="m987 139-20 62" stroke="#a8c7f0"/>
  </g>
  <circle cx="1054" cy="246" r="27" fill="#89ddc7" stroke="#101c2b" stroke-width="6"/>
  <path d="m1043 246 8 8 15-17" fill="none" stroke="#101c2b" stroke-width="4" stroke-linecap="round" stroke-linejoin="round"/>
</svg>
